<svg width="20.000000" height="20.000000" viewBox="0 0 20 20" fill="none" xmlns="http://www.w3.org/2000/svg" xmlns:xlink="http://www.w3.org/1999/xlink">
	<desc>
			Created with Pixso.
	</desc>
	<defs/>
	<rect id="画板 195" width="20.000000" height="20.000000" fill="#FFFFFF" fill-opacity="0"/>
	<path id="合并" d="M13.5 4C13.5 3.44771 13.0928 3 12.5908 3L4.40918 3C3.90723 3 3.5 3.44771 3.5 4L3.5 13C3.5 13.5523 3.90723 14 4.40918 14L6.5 14L6.5 16C6.5 16.5523 6.90723 17 7.40918 17L15.5908 17C16.0928 17 16.5 16.5523 16.5 16L16.5 7C16.5 6.44771 16.0928 6 15.5908 6L13.5 6L13.5 4ZM12.5908 6L12.5908 4L4.40918 4L4.40918 13L6.5 13L6.5 7C6.5 6.44771 6.90723 6 7.40918 6L12.5908 6ZM15.5908 7L15.5908 16L7.40918 16L7.40918 7L15.5908 7Z" clip-rule="evenodd" fill="#FFFFFF" fill-opacity="0.400000" fill-rule="evenodd"/>
</svg>
