<svg width="20.000000" height="20.000000" viewBox="0 0 20 20" fill="none" xmlns="http://www.w3.org/2000/svg" xmlns:xlink="http://www.w3.org/1999/xlink">
	<desc>
			Created with Pixso.
	</desc>
	<defs/>
	<rect id="画板 249" width="20.000000" height="20.000000" fill="#FFFFFF" fill-opacity="0"/>
	<path id="合并" d="M17.0039 10C17.0039 9.53575 16.9595 9.08032 16.8706 8.63374L16.8701 8.6322L16.8701 8.63217C16.8237 8.39792 16.7646 8.16609 16.6934 7.93671L13.3501 7.93671C13.394 8.2318 13.4282 8.52766 13.4531 8.82434L13.4531 8.82436C13.4863 9.21487 13.5024 9.60677 13.5024 10L12.5024 10C12.5024 9.64491 12.4883 9.29099 12.4595 8.93823L12.4595 8.93816L12.459 8.93484C12.4316 8.60107 12.3911 8.26836 12.3379 7.93671L7.72412 7.93671C7.62109 8.57719 7.55859 9.26675 7.55859 9.99884C7.55957 10.6977 7.61426 11.3854 7.72217 12.0621L10.5591 12.0621L10.5591 13.1871L7.95312 13.1871C8.125 13.8685 8.35303 14.5383 8.6377 15.1963C8.85107 15.6931 9.09766 16.1731 9.37646 16.6363C9.41406 16.6985 9.45215 16.7602 9.49072 16.8213L9.49121 16.8222C9.52686 16.8779 9.56299 16.9332 9.59961 16.988C9.7334 16.9955 9.86816 16.9993 10.0034 16.9993L10.0034 17.9993C9.47266 17.9993 8.95215 17.9485 8.44189 17.847C7.93164 17.7455 7.43164 17.5932 6.94141 17.3903C6.45166 17.1873 5.99023 16.9413 5.55762 16.6522L5.55713 16.6521L5.55664 16.6517C5.12451 16.3628 4.7207 16.0309 4.34619 15.656C3.9707 15.2809 3.63867 14.8769 3.34961 14.4443L3.34961 14.4442L3.34961 14.444C3.06055 14.0115 2.81494 13.5504 2.61182 13.0605C2.40869 12.5703 2.25635 12.07 2.15527 11.5596L2.15479 11.5595C2.05371 11.0494 2.00293 10.5292 2.00293 9.99892C2.00293 9.46841 2.05371 8.94801 2.15527 8.4377L2.15527 8.43768L2.15527 8.43764L2.15527 8.43758C2.25684 7.92737 2.40918 7.42725 2.61182 6.93721C2.81494 6.44702 3.06104 5.9856 3.3501 5.55293L3.3501 5.55292L3.3501 5.55292C3.63916 5.12042 3.97119 4.71667 4.34619 4.34166C4.72119 3.96648 5.12549 3.63435 5.55811 3.34528L5.55811 3.34526L5.55811 3.34526C5.99072 3.0563 6.45166 2.81036 6.94189 2.60742C7.43213 2.40437 7.93213 2.25211 8.44287 2.15063C8.95264 2.04921 9.47314 1.9985 10.0034 1.99854C10.5337 1.99854 11.0542 2.04927 11.564 2.15076C12.0747 2.25227 12.5747 2.40457 13.0649 2.60764C13.5547 2.81058 14.0161 3.05652 14.4487 3.34544C14.8813 3.63461 15.2852 3.96686 15.6606 4.34216C16.0356 4.71713 16.3672 5.12083 16.6562 5.55325L16.6562 5.55328C16.9458 5.9861 17.1919 6.44769 17.395 6.93805C17.5977 7.42821 17.75 7.92847 17.8516 8.43881L17.8516 8.43924C17.9531 8.94943 18.0039 9.4697 18.0039 10.0001L17.0039 10ZM7.95654 6.81171L12.1069 6.81171C12.0083 6.41792 11.8916 6.03026 11.7583 5.64871L11.7578 5.64812C11.6553 5.3548 11.542 5.06511 11.4185 4.77904C11.1934 4.25703 10.9458 3.77377 10.6763 3.32922C10.6025 3.20724 10.5361 3.10223 10.4775 3.01421C10.3208 3.00375 10.1626 2.99854 10.0034 2.99854C9.86865 2.99854 9.73438 3.00227 9.60107 3.00975C9.52295 3.12494 9.44775 3.24214 9.37549 3.36133C9.17627 3.68983 8.90771 4.17921 8.63867 4.80359C8.39453 5.36864 8.15088 6.04315 7.95654 6.81171ZM13.1357 6.81171L16.2363 6.81171C16.1128 6.56854 15.9751 6.33429 15.8247 6.10895L15.8247 6.10893L15.8247 6.1089L15.8247 6.10889L15.8247 6.10867C15.5718 5.73039 15.2812 5.37724 14.9536 5.04922C14.625 4.72089 14.2715 4.43022 13.8931 4.17722L13.8926 4.17706L13.8926 4.17705L13.8926 4.17703L13.8926 4.17686C13.5142 3.92415 13.1108 3.70901 12.6821 3.53149C12.3828 3.40739 12.0791 3.30498 11.7705 3.22421C11.9722 3.58948 12.1611 3.97568 12.3364 4.38278C12.4722 4.69633 12.5957 5.01392 12.708 5.33551L12.708 5.33568L12.708 5.33629L12.7085 5.33641C12.877 5.81911 13.019 6.31087 13.1357 6.81171ZM8.14307 3.24915C7.9751 3.55684 7.78955 3.92819 7.60352 4.35808C7.25732 5.16017 6.98779 5.97798 6.79541 6.81171L3.77002 6.81171C3.89404 6.56841 4.03125 6.33403 4.18164 6.10857L4.18164 6.10855L4.18213 6.10841C4.43457 5.73006 4.7251 5.37685 5.05322 5.04877C5.38184 4.72047 5.73486 4.42984 6.11377 4.1769L6.11377 4.17674C6.49219 3.92398 6.896 3.70883 7.32422 3.53131C7.59375 3.41972 7.8667 3.32567 8.14307 3.24915ZM3.31299 12.0621C3.2417 11.8322 3.18262 11.5998 3.13623 11.365C3.04736 10.9185 3.00293 10.4631 3.00293 9.99892C3.00293 9.53471 3.04736 9.07935 3.13623 8.63281L3.13623 8.63278C3.18262 8.39832 3.2417 8.16629 3.31299 7.93671L6.5835 7.93671C6.48438 8.61385 6.43457 9.30118 6.43359 9.99884C6.43359 10.7273 6.49023 11.4169 6.58545 12.0621L3.31299 12.0621ZM13.3721 13.0729L16.041 13.0729L11.8965 17.2177L12.6035 17.9248L16.7681 13.7601L16.7681 16.9688L17.7681 16.9688L17.7681 12.0729L12.8721 12.0729L12.8721 13.0729L13.3721 13.0729ZM16.7681 13.0895L16.7681 13.0729L16.7515 13.0729L16.7681 13.0895ZM8.14258 16.7485C7.97461 16.4407 7.78906 16.0695 7.60352 15.6407C7.31104 14.9621 7.01807 14.1365 6.79834 13.1871L3.77051 13.1871C3.89404 13.4297 4.03076 13.6635 4.18115 13.8884L4.18115 13.8885L4.18115 13.8886C4.43408 14.2672 4.7251 14.6206 5.05322 14.9489C5.38135 15.277 5.73438 15.5675 6.11279 15.8203L6.11279 15.8204L6.11328 15.8205L6.11328 15.8205C6.4917 16.0734 6.89551 16.2888 7.32422 16.4664C7.59375 16.5779 7.86621 16.672 8.14258 16.7485Z" clip-rule="evenodd" fill="#FFFFFF" fill-opacity="0.400000" fill-rule="evenodd"/>
</svg>
