<svg width="24.000000" height="24.000000" viewBox="0 0 24 24" fill="none" xmlns="http://www.w3.org/2000/svg" xmlns:xlink="http://www.w3.org/1999/xlink">
	<desc>
			Created with Pixso.
	</desc>
	<defs>
		<clipPath id="clip1827_827">
			<rect id="画板 171" rx="4.000000" width="24.000000" height="24.000000" transform="matrix(-1 0 0 1 24 0)" fill="white" fill-opacity="0"/>
		</clipPath>
	</defs>
	<g clip-path="url(#clip1827_827)">
		<g style="mix-blend-mode:normal">
			<path id="合并" d="M14.7803 7.53033L14.25 7L13.1895 8.06064L13.7197 8.59097L13.7339 8.60513L16.4392 11.3107L5.5 11.3107L5.5 12.8107L16.4395 12.8107L13.7341 15.5162L13.72 15.5303L13.1895 16.0607L14.2502 17.1213L14.7805 16.591L14.7947 16.5768L18.7803 12.5911C18.8535 12.5179 18.9084 12.437 18.9451 12.3487C18.9817 12.2603 19 12.1643 19 12.0608C19 11.9572 18.9817 11.8612 18.9451 11.7729C18.9084 11.6845 18.8535 11.6037 18.7803 11.5304L14.7944 7.54446L14.7803 7.53033Z" clip-rule="evenodd" fill="#FFFFFF" fill-opacity="0.400000" fill-rule="evenodd"/>
		</g>
	</g>
</svg>
