<svg width="64.000000" height="64.000000" viewBox="0 0 64 64" fill="none" xmlns="http://www.w3.org/2000/svg" xmlns:xlink="http://www.w3.org/1999/xlink">
	<desc>
			Created with Pixso.
	</desc>
	<defs/>
	<rect id="vuesax/linear/note-favorite" width="64.000000" height="64.000000" fill="#FFFFFF" fill-opacity="0"/>
	<path id="合并" d="M21.333 4.58334C21.7529 4.58334 22.083 4.91333 22.083 5.33334L22.083 8.58331L41.917 8.58331L41.917 5.33334C41.917 4.91333 42.2471 4.58334 42.667 4.58334C43.0869 4.58334 43.417 4.91333 43.417 5.33334L43.417 8.59357C47.7383 8.7135 51.0088 9.88367 53.2295 12.1041C55.5762 14.4514 56.75 17.9722 56.75 22.6666L56.75 35.9874C58.4756 37.4027 59.7822 39.022 60.6709 40.8452C61.6123 42.7786 62.083 44.9413 62.083 47.3333C62.083 48.7958 61.8809 50.1972 61.4766 51.5377L61.4766 51.538C61.123 52.7116 60.6133 53.8386 59.9502 54.9187C59.1807 56.2355 58.249 57.3618 57.1543 58.2977C57.1104 58.335 57.0664 58.372 57.0225 58.4088C55.6768 59.6056 54.2188 60.51 52.6455 61.1222C51 61.7629 49.2285 62.0833 47.333 62.0833C45.6768 62.0833 44.1064 61.8314 42.6211 61.3276C41.3164 60.885 40.0771 60.248 38.9043 59.4166L21.333 59.4166C16.6387 59.4166 13.1182 58.243 10.7705 55.8958C8.42383 53.5486 7.25 50.0277 7.25 45.3333L7.25 22.6666C7.25 18.4599 8.29102 15.1578 10.374 12.7603L10.375 12.7595C10.4541 12.6682 10.5352 12.5783 10.6172 12.4896C10.8574 12.2313 11.1084 11.9857 11.3711 11.7529L11.3711 11.7529C13.6133 9.76562 16.6846 8.71283 20.583 8.59454L20.583 5.33334C20.583 4.91333 20.9131 4.58334 21.333 4.58334ZM22.083 10.0833L22.083 13.3333C22.083 13.7534 21.7529 14.0833 21.333 14.0833C20.9131 14.0833 20.583 13.7534 20.583 13.3333L20.583 10.0948C16.7617 10.2141 13.8662 11.2589 11.8955 13.2291C9.79883 15.3264 8.75 18.4722 8.75 22.6666L8.75 45.3333C8.75 49.3079 9.73828 52.36 11.7158 54.4896C11.8486 54.6323 11.9854 54.7705 12.126 54.9042C14.2422 56.9125 17.3115 57.9167 21.333 57.9166L37.0859 57.9166C36.1885 57.0432 35.3994 56.0451 34.7188 54.9223C34.0586 53.8503 33.5518 52.7318 33.1982 51.5668L33.1982 51.5667C32.7881 50.2178 32.583 48.8067 32.583 47.3333C32.583 46.3888 32.6553 45.4809 32.8008 44.6097C33.0371 43.1906 33.4648 41.869 34.0859 40.645C34.9512 38.9384 36.1904 37.4213 37.8037 36.0938C37.9082 36.0073 38.0146 35.9216 38.123 35.8367C39.4199 34.7846 40.8105 33.9877 42.2939 33.446C43.6045 32.9673 44.9883 32.6878 46.4443 32.6076C46.6309 32.5974 46.8174 32.5904 47.0029 32.5866C47.1133 32.5844 47.2227 32.5833 47.333 32.5833C49.1387 32.5833 50.8369 32.8759 52.4268 33.4612L52.4268 33.4613C53.4092 33.8229 54.3496 34.2961 55.25 34.8809L55.25 22.6666C55.25 18.4722 54.2012 15.3264 52.1045 13.2291C50.1338 11.2589 47.2383 10.2141 43.417 10.0948L43.417 13.3333C43.417 13.7534 43.0869 14.0833 42.667 14.0833C42.2471 14.0833 41.917 13.7534 41.917 13.3333L41.917 10.0833L22.083 10.0833ZM39.3154 36.8062C39.2295 36.8726 39.1436 36.9402 39.0596 37.009C37.4629 38.2625 36.25 39.7098 35.4219 41.3509C34.5293 43.1198 34.083 45.114 34.083 47.3333C34.083 48.4892 34.2236 49.6023 34.5049 50.6727C34.5352 50.7882 34.5674 50.9024 34.6006 51.0153C34.6084 51.0416 34.6162 51.0698 34.626 51.1C34.8252 51.761 35.0781 52.4055 35.3877 53.0335C35.5713 53.4083 35.7754 53.7773 35.999 54.1403C36.6006 55.1328 37.2949 56.0165 38.082 56.7912C38.1504 56.8585 38.2207 56.9257 38.292 56.993C38.417 57.1101 38.5439 57.225 38.6738 57.3375L38.6738 57.3377C38.7158 57.3739 38.7559 57.4087 38.7959 57.4422C38.8848 57.5178 38.9766 57.5928 39.0703 57.6675C39.2383 57.8017 39.4092 57.9318 39.585 58.0578C39.5918 58.063 39.5986 58.0682 39.6055 58.0735C40.7012 58.8737 41.8623 59.4825 43.0879 59.9001C44.4258 60.3556 45.8408 60.5833 47.333 60.5833C49.0381 60.5833 50.6309 60.2946 52.1104 59.7172C53.5205 59.167 54.8281 58.3546 56.0342 57.2801C56.0371 57.2773 56.04 57.2746 56.0439 57.2719C56.0469 57.2688 56.0508 57.2657 56.0547 57.2627C57.0762 56.4149 57.9443 55.3792 58.6582 54.1555C58.6611 54.1514 58.6631 54.1473 58.666 54.1433L58.668 54.1403C59.2598 53.1782 59.7148 52.1743 60.0322 51.1288C60.3994 49.9194 60.583 48.6543 60.583 47.3333C60.583 45.1928 60.1631 43.2563 59.3223 41.5238C58.4805 39.789 57.2168 38.2587 55.5322 36.933C54.4092 36.0374 53.209 35.3529 51.9297 34.8795C50.4951 34.3487 48.9639 34.0833 47.333 34.0833C45.7617 34.0833 44.2793 34.3329 42.8857 34.8319C41.6221 35.2846 40.4316 35.9427 39.3154 36.8062ZM17.917 29.3333C17.917 28.9133 18.2471 28.5833 18.667 28.5833L34.667 28.5833C35.0869 28.5833 35.417 28.9133 35.417 29.3333C35.417 29.7533 35.0869 30.0833 34.667 30.0833L18.667 30.0833C18.2471 30.0833 17.917 29.7533 17.917 29.3333ZM17.917 42.6667C17.917 42.2466 18.2471 41.9167 18.667 41.9167L25.6543 41.9167C26.0742 41.9167 26.4043 42.2466 26.4043 42.6667C26.4043 43.0867 26.0742 43.4167 25.6543 43.4167L18.667 43.4167C18.2471 43.4167 17.917 43.0867 17.917 42.6667ZM42.751 43.8668C42.6006 43.7181 42.5254 43.5258 42.5254 43.3334C42.5254 43.144 42.5986 42.9544 42.7451 42.8062C43.04 42.5074 43.5068 42.5047 43.8057 42.7999L47.3262 46.2789L50.751 42.8938C51.0498 42.5985 51.5166 42.6013 51.8115 42.9C51.958 43.0482 52.0312 43.2379 52.0312 43.4273C52.0312 43.6197 51.9561 43.812 51.8057 43.9607L48.3926 47.3333L51.8057 50.706C51.9561 50.8547 52.0312 51.0469 52.0312 51.2393C52.0312 51.4288 51.958 51.6184 51.8115 51.7666C51.5166 52.0653 51.0498 52.0681 50.751 51.7729L47.3262 48.3878L43.8057 51.8668C43.5068 52.162 43.04 52.1592 42.7451 51.8605C42.5986 51.7123 42.5254 51.5227 42.5254 51.3332C42.5254 51.1408 42.6006 50.9486 42.751 50.7999L46.2588 47.3333L42.751 43.8668Z" clip-rule="evenodd" fill="#FFFFFF" fill-opacity="0.800000" fill-rule="evenodd"/>
</svg>
