<svg width="24.000000" height="24.000000" viewBox="0 0 24 24" fill="none" xmlns="http://www.w3.org/2000/svg" xmlns:xlink="http://www.w3.org/1999/xlink">
	<desc>
			Created with Pixso.
	</desc>
	<defs>
		<clipPath id="clip1827_807">
			<rect id="画板 38" rx="4.000000" width="24.000000" height="24.000000" fill="white" fill-opacity="0"/>
		</clipPath>
	</defs>
	<g clip-path="url(#clip1827_807)">
		<g style="mix-blend-mode:normal">
			<path id="合并" d="M9.21973 7.53033L9.75 7L10.8105 8.06064L10.2803 8.59097L10.2661 8.60513L7.56079 11.3107L18.5 11.3107L18.5 12.8107L7.56055 12.8107L10.2659 15.5162L10.28 15.5303L10.8105 16.0607L9.74976 17.1213L9.21948 16.591L9.20532 16.5768L5.21973 12.5911C5.14648 12.5179 5.09155 12.437 5.05493 12.3487C5.01831 12.2603 5 12.1643 5 12.0608C5 11.9572 5.01831 11.8612 5.05493 11.7729C5.09155 11.6845 5.14648 11.6037 5.21973 11.5304L9.20557 7.54446L9.21973 7.53033Z" clip-rule="evenodd" fill="#FFFFFF" fill-opacity="0.400000" fill-rule="evenodd"/>
		</g>
	</g>
</svg>
