<svg width="20.000061" height="20.000000" viewBox="0 0 20.0001 20" fill="none" xmlns="http://www.w3.org/2000/svg" xmlns:xlink="http://www.w3.org/1999/xlink">
	<desc>
			Created with Pixso.
	</desc>
	<defs>
		<clipPath id="clip1685_1531">
			<rect id="svg" width="20.000000" height="20.000000" fill="white" fill-opacity="0"/>
		</clipPath>
	</defs>
	<g clip-path="url(#clip1685_1531)">
		<path id="path" d="M8.97 1C13.37 1 16.94 4.57 16.94 8.97C16.94 13.37 13.37 16.94 8.97 16.94C4.57 16.94 1 13.37 1 8.97C1 4.57 4.57 1 8.97 1ZM8.97 15.17C12.4 15.17 15.17 12.4 15.17 8.97C15.17 5.54 12.4 2.77 8.97 2.77C5.54 2.77 2.77 5.54 2.77 8.97C2.77 12.4 5.54 15.17 8.97 15.17ZM16.49 15.24L19 17.74L17.74 19L15.24 16.49L16.49 15.24Z" fill="#FFFFFF" fill-opacity="0.400000" fill-rule="nonzero"/>
	</g>
</svg>
