<svg width="16.000000" height="16.000000" viewBox="0 0 16 16" fill="none" xmlns="http://www.w3.org/2000/svg" xmlns:xlink="http://www.w3.org/1999/xlink">
	<desc>
			Created with Pixso.
	</desc>
	<defs/>
	<rect id="vuesax/bold/tick-circle" width="16.000000" height="16.000000" fill="#FFFFFF" fill-opacity="0"/>
	<path id="Vector" d="M8 1.33C4.32 1.33 1.33 4.32 1.33 7.99C1.33 11.67 4.32 14.66 8 14.66C11.67 14.66 14.66 11.67 14.66 7.99C14.66 4.32 11.67 1.33 8 1.33ZM11.18 6.46L7.4 10.24C7.31 10.34 7.18 10.39 7.05 10.39C6.91 10.39 6.79 10.34 6.69 10.24L4.81 8.35C4.62 8.16 4.62 7.84 4.81 7.65C5 7.45 5.32 7.45 5.52 7.65L7.05 9.18L10.48 5.75C10.67 5.56 10.99 5.56 11.18 5.75C11.38 5.95 11.38 6.26 11.18 6.46Z" fill="#86DD45" fill-opacity="1.000000" fill-rule="nonzero"/>
	<g opacity="0.000000"/>
</svg>
