<svg width="20.000000" height="20.000000" viewBox="0 0 20 20" fill="none" xmlns="http://www.w3.org/2000/svg" xmlns:xlink="http://www.w3.org/1999/xlink">
	<desc>
			Created with Pixso.
	</desc>
	<defs/>
	<rect id="vuesax/linear/arrow-2" width="20.000000" height="20.000000" fill="#FFFFFF" fill-opacity="0"/>
	<path id="合并" d="M12.8838 3.05176L12.8696 3.03766L12.3394 2.50732L13.3999 1.44666L13.9304 1.97699L13.9443 1.99115L16.9895 5.03625C17.0261 5.06738 17.0593 5.10193 17.0891 5.13953C17.2268 5.29547 17.2954 5.45135 17.2954 5.6073C17.2954 5.75751 17.2317 5.90771 17.104 6.05798C17.0671 6.10779 17.0242 6.15271 16.9763 6.19171L13.9446 9.22351L13.9304 9.23767L13.3999 9.76801L12.3394 8.70734L12.8696 8.177L12.8838 8.16284L14.6882 6.3584L2.75 6.3584L2.75 4.8584L14.6904 4.8584L12.8838 3.05176ZM6.06982 10.7603L6.6001 10.23L7.66064 11.2906L7.13037 11.821L7.11621 11.8351L5.30957 13.6417L17.25 13.6417L17.25 15.1417L5.31177 15.1417L7.11621 16.9462L7.13037 16.9603L7.66064 17.4907L6.6001 18.5513L6.06982 18.021L6.05566 18.0068L3.02368 14.9748C2.97583 14.936 2.93311 14.8912 2.89648 14.8417C2.76855 14.6913 2.70459 14.541 2.70459 14.3907C2.70459 14.2349 2.77319 14.0792 2.9104 13.9233C2.94043 13.8854 2.97412 13.8506 3.01074 13.8193L6.05566 10.7745L6.06982 10.7603Z" clip-rule="evenodd" fill="#FFFFFF" fill-opacity="0.400000" fill-rule="evenodd"/>
</svg>
