<svg width="24.000000" height="24.000000" viewBox="0 0 24 24" fill="none" xmlns="http://www.w3.org/2000/svg" xmlns:xlink="http://www.w3.org/1999/xlink">
	<desc>
			Created with Pixso.
	</desc>
	<defs>
		<clipPath id="clip681_115">
			<rect id="Vizing_Profile" rx="12.000000" width="24.000000" height="24.000000" fill="white" fill-opacity="0"/>
		</clipPath>
	</defs>
	<g clip-path="url(#clip681_115)">
		<rect id="rect" width="24.000000" height="24.000000" fill="#FFFFFF" fill-opacity="1.000000"/>
		<path id="path" d="M7.82 18.06C9.01 18.89 10.45 19.37 12.01 19.37C15.86 19.37 19.03 16.41 19.36 12.64C17.94 13.69 15.98 14.84 13.74 15.88C11.57 16.89 9.5 17.64 7.82 18.06Z" fill="#000000" fill-opacity="1.000000" fill-rule="evenodd"/>
		<path id="path" d="M18.7 8.88C18.08 9 17.39 9.18 16.64 9.4C16.48 9.11 16.29 8.84 16.08 8.58C15.24 7.59 14.12 6.97 12.93 6.77C11.65 6.54 10.4 6.79 9.35 7.4C8.23 8.04 7.43 9.05 7.02 10.18C6.57 11.4 6.61 12.68 7.02 13.81C7.03 13.85 7.04 13.88 7.06 13.91C6.4 14.35 5.83 14.78 5.35 15.18C4.89 14.21 4.63 13.13 4.63 12C4.63 7.92 7.94 4.62 12.01 4.62C14.97 4.62 17.52 6.37 18.7 8.88Z" fill="#000000" fill-opacity="1.000000" fill-rule="evenodd"/>
		<path id="path" d="M13.49 8.43C13.22 8.43 13 8.65 13 8.92C13 9.13 13.13 9.31 13.32 9.38C13.33 9.55 13.32 9.71 13.29 9.86C13.23 10.2 13.09 10.51 12.89 10.77C13.08 10.68 13.28 10.6 13.47 10.52C13.55 10.33 13.62 10.13 13.65 9.93C13.68 9.74 13.69 9.56 13.69 9.38C13.86 9.3 13.98 9.13 13.98 8.92C13.98 8.65 13.76 8.43 13.49 8.43ZM10.3 12C10.48 11.9 10.67 11.81 10.86 11.72C10.56 11.7 10.29 11.63 10.03 11.51C9.85 11.42 9.68 11.3 9.53 11.17C9.55 11.12 9.56 11.07 9.56 11.02C9.56 10.74 9.34 10.52 9.06 10.52C8.79 10.52 8.57 10.74 8.57 11.02C8.57 11.29 8.79 11.51 9.06 11.51C9.15 11.51 9.23 11.49 9.3 11.45C9.47 11.61 9.66 11.74 9.87 11.84C10.01 11.91 10.15 11.96 10.3 12Z" fill="#000000" fill-opacity="1.000000" fill-rule="evenodd"/>
		<path id="path" d="M3.7 17.59C3.17 16.46 6.73 13.68 11.66 11.38C16.58 9.09 21 8.14 21.53 9.28C22.06 10.42 18.5 13.2 13.57 15.49C8.65 17.79 4.23 18.73 3.7 17.59Z" fill="#BB2C2C" fill-opacity="1.000000" fill-rule="evenodd"/>
	</g>
</svg>
