<svg width="32.000000" height="32.000000" viewBox="0 0 32 32" fill="none" xmlns="http://www.w3.org/2000/svg" xmlns:xlink="http://www.w3.org/1999/xlink">
	<desc>
			Created with Pixso.
	</desc>
	<defs>
		<clipPath id="clip681_408">
			<rect id="Bridged USDC (USDC.e)" width="32.000000" height="32.000000" fill="white" fill-opacity="0"/>
		</clipPath>
	</defs>
	<g clip-path="url(#clip681_408)">
		<path id="path" d="M16 32C24.86 32 32 24.86 32 16C32 7.13 24.86 0 16 0C7.13 0 0 7.13 0 16C0 24.86 7.13 32 16 32Z" fill="#2775CA" fill-opacity="1.000000" fill-rule="nonzero"/>
		<path id="path" d="M20.4 18.53C20.4 16.2 19 15.4 16.2 15.06C14.2 14.8 13.8 14.26 13.8 13.33C13.8 12.39 14.46 11.8 15.8 11.8C17 11.8 17.66 12.2 18 13.2C18.06 13.4 18.26 13.53 18.46 13.53L19.53 13.53C19.79 13.53 20 13.33 20 13.06L20 13C19.73 11.53 18.53 10.4 17 10.26L17 8.66C17 8.4 16.79 8.2 16.46 8.13L15.46 8.13C15.2 8.13 15 8.33 14.93 8.66L14.93 10.2C12.93 10.46 11.66 11.8 11.66 13.46C11.66 15.66 13 16.53 15.8 16.86C17.66 17.2 18.26 17.6 18.26 18.66C18.26 19.73 17.33 20.46 16.06 20.46C14.33 20.46 13.73 19.73 13.53 18.73C13.46 18.46 13.26 18.33 13.06 18.33L11.93 18.33C11.66 18.33 11.46 18.53 11.46 18.79L11.46 18.86C11.73 20.53 12.8 21.73 15 22.06L15 23.66C15 23.93 15.2 24.13 15.53 24.2L16.53 24.2C16.79 24.2 17 24 17.06 23.66L17.06 22.06C19.06 21.73 20.4 20.33 20.4 18.53Z" fill="#FFFFFF" fill-opacity="1.000000" fill-rule="nonzero"/>
		<path id="path" d="M6.66 12.73C4.73 17.86 7.4 23.66 12.6 25.53C12.8 25.66 13 25.93 13 26.13L13 27.06C13 27.2 13 27.26 12.93 27.33C12.86 27.6 12.6 27.73 12.33 27.6C8.6 26.4 5.73 23.53 4.53 19.79C2.53 13.46 6 6.73 12.33 4.73C12.4 4.66 12.53 4.66 12.6 4.66C12.86 4.73 13 4.93 13 5.2L13 6.13C13 6.46 12.86 6.66 12.6 6.8C9.86 7.8 7.66 9.93 6.66 12.73ZM19.06 5C19.13 4.73 19.4 4.59 19.66 4.73C23.33 5.93 26.26 8.8 27.46 12.6C29.46 18.93 26 25.66 19.66 27.66C19.6 27.73 19.46 27.73 19.4 27.73C19.13 27.66 19 27.46 19 27.2L19 26.26C19 25.93 19.13 25.73 19.4 25.6C22.13 24.6 24.33 22.46 25.33 19.66C27.26 14.53 24.6 8.73 19.4 6.86C19.2 6.73 19 6.46 19 6.2L19 5.26C19 5.13 19 5.06 19.06 5Z" fill="#FFFFFF" fill-opacity="1.000000" fill-rule="evenodd"/>
	</g>
</svg>
