<svg width="32.000000" height="32.000000" viewBox="0 0 32 32" fill="none" xmlns="http://www.w3.org/2000/svg" xmlns:xlink="http://www.w3.org/1999/xlink">
	<desc>
			Created with Pixso.
	</desc>
	<defs>
		<clipPath id="clip681_412">
			<rect id="Tether (USDT)" width="32.000000" height="32.000000" fill="white" fill-opacity="0"/>
		</clipPath>
	</defs>
	<g clip-path="url(#clip681_412)">
		<path id="path" d="M31.51 19.87C29.38 28.44 20.69 33.65 12.12 31.52C3.55 29.38 -1.66 20.7 0.47 12.13C2.61 3.55 11.29 -1.66 19.86 0.47C28.43 2.61 33.65 11.29 31.51 19.87Z" fill="#50AF95" fill-opacity="1.000000" fill-rule="nonzero"/>
		<path id="path" d="M18.02 17.81C17.91 17.82 17.32 17.85 16.02 17.85C14.98 17.85 14.24 17.82 13.99 17.81C9.98 17.63 6.99 16.93 6.99 16.1C6.99 15.26 9.98 14.57 13.99 14.39L13.99 17.11C14.25 17.13 15 17.18 16.04 17.18C17.28 17.18 17.9 17.13 18.02 17.12L18.02 14.39C22.02 14.57 25 15.27 25 16.1C25 16.93 22.02 17.63 18.02 17.81ZM18.02 14.11L18.02 11.67L23.6 11.67L23.6 7.95L8.41 7.95L8.41 11.67L13.99 11.67L13.99 14.11C9.45 14.32 6.04 15.21 6.04 16.29C6.04 17.37 9.45 18.27 13.99 18.47L13.99 26.29L18.02 26.29L18.02 18.47C22.54 18.26 25.95 17.37 25.95 16.29C25.95 15.21 22.55 14.32 18.02 14.11Z" fill="#FFFFFF" fill-opacity="1.000000" fill-rule="evenodd"/>
	</g>
</svg>
