<svg width="120.000000" height="120.000000" viewBox="0 0 120 120" fill="none" xmlns="http://www.w3.org/2000/svg" xmlns:xlink="http://www.w3.org/1999/xlink">
	<desc>
			Created with Pixso.
	</desc>
	<defs>
		<clipPath id="clip2285_462">
			<rect id="Arbitrum One" rx="59.999996" width="119.999992" height="120.000000" fill="white" fill-opacity="0"/>
		</clipPath>
	</defs>
	<rect id="Arbitrum One" rx="59.999996" width="119.999992" height="120.000000" fill="#232021" fill-opacity="1.000000"/>
	<g clip-path="url(#clip2285_462)">
		<path id="path" d="M64.93 66.51L61.08 76.65C60.97 76.93 60.97 77.25 61.08 77.52L67.67 95L75.32 90.74L66.15 66.49C65.95 65.94 65.14 65.94 64.93 66.51Z" fill="#FFFFFF" fill-opacity="1.000000" fill-rule="nonzero"/>
		<path id="path" d="M72.62 49.42C72.41 48.85 71.6 48.85 71.38 49.42L67.52 59.57C67.41 59.85 67.41 60.16 67.52 60.43L78.35 89.05L86 84.79L72.62 49.42Z" fill="#FFFFFF" fill-opacity="1.000000" fill-rule="nonzero"/>
		<path id="path" d="M60 25.82C60.18 25.82 60.37 25.88 60.54 25.97L89.55 42.52C89.89 42.7 90.09 43.05 90.09 43.44L90.09 76.53C90.09 76.92 89.89 77.27 89.55 77.46L60.54 94.02C60.37 94.11 60.18 94.17 60 94.17C59.81 94.17 59.62 94.11 59.45 94.02L30.44 77.48C30.1 77.29 29.9 76.94 29.9 76.55L29.9 43.44C29.9 43.05 30.1 42.7 30.44 42.52L59.45 25.97C59.62 25.88 59.81 25.82 60 25.82ZM60 21C58.97 21 57.92 21.27 57 21.79L27.99 38.34C26.16 39.39 25 41.33 25 43.44L25 76.53C25 78.64 26.14 80.6 27.99 81.65L57 98.2C57.92 98.74 58.95 99 60 99C61.04 99 62.07 98.72 62.99 98.2L92 81.65C93.85 80.6 95 78.66 95 76.53L95 43.44C95 41.33 93.85 39.37 92 38.32L62.99 21.79C62.05 21.27 61.02 21 60 21Z" fill="#FFFFFF" fill-opacity="1.000000" fill-rule="nonzero"/>
		<path id="polygon" d="M39 89.26L41.66 82L47 86.43L43.5 93L39 89.26Z" fill="#232021" fill-opacity="1.000000" fill-rule="nonzero"/>
		<path id="path" d="M57.42 42L50.04 42C49.5 42 48.99 42.32 48.8 42.83L33 84.79L40.64 89.06L58.05 42.85C58.21 42.43 57.89 42 57.42 42Z" fill="#FFFFFF" fill-opacity="1.000000" fill-rule="nonzero"/>
		<path id="path" d="M70.33 42L62.95 42C62.41 42 61.9 42.32 61.72 42.83L43.68 90.73L51.32 95L70.95 42.85C71.12 42.43 70.78 42 70.33 42Z" fill="#FFFFFF" fill-opacity="1.000000" fill-rule="nonzero"/>
	</g>
</svg>
