<svg width="120.000000" height="120.000000" viewBox="0 0 120 120" fill="none" xmlns="http://www.w3.org/2000/svg" xmlns:xlink="http://www.w3.org/1999/xlink">
	<desc>
			Created with Pixso.
	</desc>
	<defs/>
	<rect id="BNB Chain" width="120.000000" height="120.000000" fill="#FFFFFF" fill-opacity="0"/>
	<path id="Binance Coin (BNB)" d="M118.19 74.51C110.17 106.65 77.62 126.21 45.47 118.2C13.34 110.19 -6.23 77.63 1.79 45.49C9.8 13.34 42.36 -6.22 74.49 1.79C106.64 9.8 126.2 42.37 118.19 74.51L118.19 74.51L118.19 74.51Z" fill="#232021" fill-opacity="1.000000" fill-rule="nonzero"/>
	<path id="path" d="M41.46 35.02L60.5 24L79.53 35.02L72.53 39.1L60.5 32.14L48.46 39.1L41.46 35.02ZM79.53 48.93L72.53 44.86L60.5 51.81L48.46 44.86L41.46 48.93L41.46 57.08L53.5 64.03L53.5 77.94L60.5 82.02L67.49 77.94L67.49 64.03L79.53 57.08L79.53 48.93ZM79.53 70.99L79.53 62.84L72.53 66.91L72.53 75.06L79.53 70.99ZM84.5 73.87L72.46 80.82L72.46 88.97L91.5 77.94L91.5 55.89L84.5 59.96L84.5 73.87ZM77.5 41.98L84.5 46.05L84.5 54.2L91.5 50.13L91.5 41.98L84.5 37.9L77.5 41.98ZM53.5 83.77L53.5 91.92L60.5 96L67.49 91.92L67.49 83.77L60.5 87.85L53.5 83.77ZM41.46 70.99L48.46 75.06L48.46 66.91L41.46 62.84L41.46 70.99ZM53.5 41.98L60.5 46.05L67.49 41.98L60.5 37.9L53.5 41.98ZM36.49 46.05L43.49 41.98L36.49 37.9L29.5 41.98L29.5 50.13L36.49 54.2L36.49 46.05ZM36.49 59.96L29.5 55.89L29.5 77.94L48.53 88.97L48.53 80.82L36.49 73.87L36.49 59.96Z" fill="#FFFFFF" fill-opacity="1.000000" fill-rule="nonzero"/>
</svg>
