<svg width="120.000000" height="120.000000" viewBox="0 0 120 120" fill="none" xmlns="http://www.w3.org/2000/svg" xmlns:xlink="http://www.w3.org/1999/xlink">
	<desc>
			Created with Pixso.
	</desc>
	<defs>
		<clipPath id="clip2285_472">
			<rect id="Scroll" rx="60.000000" width="120.000015" height="120.000000" fill="white" fill-opacity="0"/>
		</clipPath>
	</defs>
	<g clip-path="url(#clip2285_472)">
		<rect id="rect" rx="60.000004" width="120.000008" height="120.000008" fill="#232021" fill-opacity="1.000000"/>
		<path id="path" d="M36.05 51.4C33.58 49.06 31.85 46.05 31.85 42.44L31.85 42.07C32.05 35.95 37.09 31.02 43.22 30.84L82.26 30.84C83.27 30.89 84.09 31.61 84.09 32.65L84.09 65.64C84.98 65.79 85.42 65.91 86.29 66.23C86.98 66.48 87.92 67.02 87.92 67.02L87.92 32.65C87.87 29.51 85.37 27 82.23 27L43.19 27C34.77 27.12 28 34 28 42.44C28 47.35 30.24 51.55 33.9 54.49C34.15 54.68 34.4 54.95 35.04 54.95C36.17 54.95 36.99 54.04 36.94 53.05C36.94 52.21 36.57 51.92 36.05 51.4Z" fill="#FFFFFF" fill-opacity="1.000000" fill-rule="nonzero"/>
		<path id="path" d="M81.25 67.81L50.63 67.81C48.58 67.84 46.92 69.49 46.92 71.54L46.92 75.93C46.97 77.95 48.7 79.68 50.78 79.68L53.05 79.68L53.05 75.93L50.75 75.93L50.75 71.64C50.75 71.64 51.32 71.64 51.99 71.64C55.87 71.64 58.71 75.21 58.71 79.06C58.71 82.47 55.6 86.81 50.41 86.47C45.81 86.17 43.32 82.07 43.32 79.06L43.32 41.8C43.32 40.12 41.93 38.74 40.25 38.74L37.19 38.74L37.19 42.57L39.46 42.57L39.46 79.09C39.34 86.52 44.75 90.24 50.41 90.24L81.27 90.34C87.47 90.34 92.51 85.31 92.51 79.09C92.54 72.87 87.47 67.81 81.25 67.81ZM88.68 79.33C88.56 83.31 85.27 86.52 81.25 86.52L59.8 86.44C61.5 84.47 62.54 81.9 62.54 79.09C62.54 74.7 59.92 71.66 59.92 71.66L81.27 71.66C85.37 71.66 88.71 74.99 88.71 79.09L88.68 79.33Z" fill="#FFFFFF" fill-opacity="1.000000" fill-rule="nonzero"/>
		<path id="path" d="M72.99 43.26L49.91 43.26L49.91 39.43L72.99 39.43C74.03 39.43 74.9 40.27 74.9 41.33C74.92 42.39 74.08 43.26 72.99 43.26Z" fill="#FFFFFF" fill-opacity="1.000000" fill-rule="nonzero"/>
		<path id="path" d="M72.99 61.2L49.91 61.2L49.91 57.4L72.99 57.4C74.03 57.4 74.9 58.24 74.9 59.3C74.92 60.33 74.08 61.2 72.99 61.2Z" fill="#FFFFFF" fill-opacity="1.000000" fill-rule="nonzero"/>
		<path id="path" d="M77.07 52.21L49.91 52.21L49.91 48.39L77.05 48.39C78.08 48.39 78.95 49.23 78.95 50.29C79 51.35 78.13 52.21 77.07 52.21Z" fill="#FFFFFF" fill-opacity="1.000000" fill-rule="nonzero"/>
	</g>
</svg>
