<svg width="120.000000" height="120.000000" viewBox="0 0 120 120" fill="none" xmlns="http://www.w3.org/2000/svg" xmlns:xlink="http://www.w3.org/1999/xlink">
	<desc>
			Created with Pixso.
	</desc>
	<defs>
		<clipPath id="clip2422_533">
			<rect id="Vizing_Profile" rx="60.000000" width="120.000000" height="120.000000" fill="white" fill-opacity="0"/>
		</clipPath>
	</defs>
	<rect id="Vizing_Profile" rx="60.000000" width="120.000000" height="120.000000" fill="#232021" fill-opacity="1.000000"/>
	<g clip-path="url(#clip2422_533)">
		<rect id="rect" width="120.000000" height="120.000000" fill="#040102" fill-opacity="1.000000"/>
		<path id="path" d="M39.11 90.34C45.06 94.46 52.29 96.88 60.07 96.88C79.32 96.88 95.16 82.08 96.81 63.24C89.71 68.47 79.91 74.2 68.7 79.43C57.87 84.48 47.52 88.22 39.11 90.34Z" fill="#FFFFFF" fill-opacity="1.000000" fill-rule="evenodd"/>
		<path id="path" d="M93.51 44.43C90.42 45.03 86.97 45.9 83.24 47.03C82.42 45.57 81.47 44.2 80.41 42.93C76.24 37.95 70.62 34.89 64.68 33.85C58.28 32.71 52.01 33.98 46.79 37C41.16 40.24 37.18 45.25 35.12 50.91C32.89 57.01 33.05 63.41 35.12 69.08C35.18 69.25 35.24 69.42 35.31 69.59C32.04 71.77 29.17 73.9 26.79 75.91C24.48 71.09 23.18 65.69 23.18 60C23.18 39.64 39.71 23.11 60.07 23.11C74.86 23.11 87.64 31.85 93.51 44.43Z" fill="#FFFFFF" fill-opacity="1.000000" fill-rule="evenodd"/>
		<path id="path" d="M67.48 42.18C66.12 42.18 65.02 43.28 65.02 44.64C65.02 45.69 65.68 46.59 66.6 46.94C66.65 47.75 66.6 48.55 66.46 49.33C66.16 51.04 65.46 52.57 64.48 53.86C65.44 53.44 66.4 53.03 67.35 52.64C67.79 51.67 68.1 50.67 68.27 49.66C68.44 48.73 68.49 47.81 68.45 46.9C69.32 46.53 69.94 45.66 69.94 44.64C69.94 43.28 68.84 42.18 67.48 42.18ZM51.51 60.02C52.43 59.54 53.36 59.07 54.3 58.6C52.84 58.54 51.45 58.17 50.19 57.56C49.25 57.1 48.42 56.52 47.69 55.85C47.76 55.61 47.8 55.36 47.8 55.1C47.8 53.74 46.7 52.64 45.35 52.64C43.99 52.64 42.89 53.74 42.89 55.1C42.89 56.46 43.99 57.56 45.35 57.56C45.76 57.56 46.16 57.45 46.5 57.27C47.37 58.06 48.35 58.71 49.38 59.21C50.08 59.55 50.79 59.82 51.51 60.02Z" fill="#FFFFFF" fill-opacity="1.000000" fill-rule="evenodd"/>
		<path id="path" d="M18.52 87.99C15.88 82.31 33.69 68.4 58.3 56.93C82.92 45.45 105.02 40.74 107.67 46.42C110.32 52.1 92.51 66 67.89 77.48C43.27 88.96 21.17 93.67 18.52 87.99Z" fill="#FFFFFF" fill-opacity="1.000000" fill-rule="evenodd"/>
	</g>
</svg>
