<svg width="96.214111" height="12.418945" viewBox="0 0 96.2141 12.4189" fill="none" xmlns="http://www.w3.org/2000/svg" xmlns:xlink="http://www.w3.org/1999/xlink">
	<desc>
			Created with Pixso.
	</desc>
	<defs/>
	<path id="Vizing Scan" d="M72.52 10.32C72.52 11.44 71.65 12.34 69.91 12.34C67.86 12.34 66.97 11.27 66.97 10L66.97 9.84L67.75 9.84L67.75 9.96C67.75 10.98 68.29 11.62 69.93 11.62C71.15 11.62 71.72 11.21 71.72 10.36C71.72 9.54 71.35 9.23 70.24 8.99L68.96 8.7C67.81 8.46 67.02 7.93 67.02 6.74C67.02 5.68 67.9 4.75 69.65 4.75C71.56 4.75 72.4 5.92 72.4 7.12L72.4 7.26L71.61 7.26L71.61 7.14C71.61 6.13 71.09 5.48 69.64 5.48C68.41 5.48 67.81 5.89 67.81 6.69C67.81 7.53 68.21 7.77 69.29 8.02L70.57 8.32C71.79 8.59 72.52 9.16 72.52 10.32ZM80.6 9.52L80.6 9.6C80.6 11.28 79.38 12.34 77.58 12.34C75.49 12.34 74.22 10.85 74.22 8.55C74.22 6.25 75.49 4.75 77.58 4.75C79.38 4.75 80.6 5.82 80.6 7.49L80.6 7.58L79.77 7.58L79.77 7.49C79.77 6.19 79.07 5.51 77.53 5.51C75.8 5.51 75.05 6.5 75.05 8.55C75.05 10.6 75.8 11.58 77.53 11.58C79.07 11.58 79.77 10.9 79.77 9.6L79.77 9.52L80.6 9.52ZM83.43 10.08L82.55 12.23L81.72 12.23L84.7 4.86L85.82 4.86L88.81 12.23L87.96 12.23L87.07 10.08L83.43 10.08ZM91.19 6.19L91.19 12.23L90.41 12.23L90.41 4.86L91.26 4.86L94.57 9.77L95.35 10.93L95.42 10.93L95.42 4.86L96.21 4.86L96.21 12.23L95.35 12.23L92.02 7.33L91.25 6.19L91.19 6.19ZM85.22 5.61L84.79 6.73L83.71 9.36L86.77 9.36L85.69 6.73L85.27 5.61L85.22 5.61Z" fill="#FFFFFF" fill-opacity="0.600000" fill-rule="evenodd"/>
	<path id="Vizing Scan" d="M57.91 10.4C57.55 11.32 56.6 12.41 54.46 12.41C51 12.41 49.11 10.05 49.11 6.2C49.11 2.44 51.31 0 54.98 0C58.56 0 60.49 1.76 60.49 4.62L60.49 4.71L57.62 4.71L57.62 4.64C57.62 3.12 56.89 2.61 54.93 2.61C52.86 2.61 51.99 3.36 51.99 6.2C51.99 9.1 52.91 9.84 55.18 9.84C57.08 9.84 57.93 9.52 57.93 8.08L54.64 8.08L54.64 5.83L60.53 5.83L60.53 12.23L58.02 12.23L58.02 10.4L57.91 10.4ZM12.34 0.18L7.97 12.23L4.37 12.23L0 0.18L3.04 0.18L6.11 9.21L6.29 9.21L9.32 0.18L12.34 0.18ZM16.69 0.18L16.69 12.23L13.99 12.23L13.99 0.18L16.69 0.18ZM28.83 9.8L28.83 12.23L18.72 12.23L18.72 10L24.91 2.79L24.91 2.61L19.06 2.61L19.06 0.18L28.58 0.18L28.58 2.41L22.33 9.62L22.33 9.8L28.83 9.8ZM33.45 0.18L33.45 12.23L30.75 12.23L30.75 0.18L33.45 0.18ZM38.9 6.53L38.9 12.23L36.2 12.23L36.2 0.18L39.08 0.18L42.98 6.22L43.99 7.84L44.17 7.84L44.13 6.22L44.13 0.18L46.83 0.18L46.83 12.23L43.95 12.23L40.21 6.53L39.04 4.68L38.86 4.68L38.9 6.53Z" fill="#FFFFFF" fill-opacity="1.000000" fill-rule="evenodd"/>
</svg>
