<svg width="30.589111" height="24.000000" viewBox="0 0 30.5891 24" fill="none" xmlns="http://www.w3.org/2000/svg" xmlns:xlink="http://www.w3.org/1999/xlink">
	<desc>
			Created with Pixso.
	</desc>
	<defs/>
	<path id="减去顶层" d="M7.49 21.87C9.42 23.21 11.77 24 14.3 24C20.57 24 25.72 19.18 26.26 13.05C23.95 14.75 20.76 16.62 17.11 18.32C13.59 19.96 10.22 21.18 7.49 21.87Z" fill="#FFFFFF" fill-opacity="1.000000" fill-rule="evenodd"/>
	<path id="减去顶层" d="M25.18 6.93C24.18 7.13 23.06 7.41 21.84 7.78C21.58 7.3 21.27 6.86 20.92 6.44C19.56 4.82 17.74 3.83 15.8 3.49C13.72 3.12 11.68 3.53 9.99 4.51C8.15 5.57 6.86 7.2 6.19 9.04C5.46 11.03 5.51 13.11 6.19 14.95C6.21 15.01 6.23 15.06 6.25 15.12C5.18 15.82 4.25 16.52 3.48 17.17C2.73 15.6 2.3 13.85 2.3 12C2.3 5.37 7.68 0 14.3 0C19.12 0 23.27 2.84 25.18 6.93Z" fill="#FFFFFF" fill-opacity="1.000000" fill-rule="evenodd"/>
	<path id="矢量 15" d="M1.57 22.58C0.53 20.83 5.81 15.73 13.39 11.18C20.96 6.63 27.95 4.35 29 6.1C30.05 7.85 24.76 12.95 17.19 17.5C9.62 22.05 2.62 24.33 1.57 22.58Z" fill="#FFFFFF" fill-opacity="1.000000" fill-rule="evenodd"/>
</svg>
